<svg width="343" height="86" viewBox="0 0 343 86" fill="none" xmlns="http://www.w3.org/2000/svg">
<path d="M14.1028 62.3591C8.46167 66.4129 2.35046 70.3109 0 72L343 71.4867C336.284 69.4598 320.335 64.8927 310.261 64.8927C297.67 64.8927 301.195 62.3591 293.137 60.839C285.078 59.3188 284.07 47.1575 274.501 47.1575C264.931 47.1575 261.405 53.7449 256.872 53.7449C252.339 53.7449 246.295 66.4129 242.266 64.8927C238.236 63.3726 232.696 62.3591 226.652 62.3591C220.608 62.3591 217.082 67.4263 213.557 69.4532C210.031 71.4801 204.994 69.96 199.454 69.4532C193.913 68.9465 191.899 65.9062 188.373 62.3591C184.847 58.8121 181.825 53.7449 176.789 53.7449C171.752 53.7449 168.226 58.3054 161.175 57.2919C154.123 56.2785 149.59 53.7449 147.072 47.1575C144.554 40.5702 140.021 43.1038 135.991 40.0635C131.962 37.0231 132.465 29.929 127.932 27.3954C123.399 24.8618 125.414 26.382 116.852 14.2207C108.289 2.05942 110.808 9.15351 101.742 4.0863C92.6755 -0.980902 92.1718 -0.474181 82.0984 1.04598C72.025 2.56614 75.047 15.7409 70.0103 20.3014C64.9736 24.8618 65.9809 36.0097 63.4626 40.0635C60.9442 44.1172 52.3818 36.5164 45.3304 40.0635C38.279 43.6105 42.3084 51.2113 35.257 53.7449C28.2056 56.2785 31.2276 60.839 25.1836 60.839C19.1395 60.839 21.1542 57.2919 14.1028 62.3591Z" fill="#CAC2ED"/>
<g clip-path="url(#clip0_0_1351)">
<path d="M14.1028 62.3591C8.46167 66.4129 2.35046 70.3109 0 72L343 71.4867C336.284 69.4598 320.335 64.8927 310.261 64.8927C297.67 64.8927 301.195 62.3591 293.137 60.839C285.078 59.3188 284.07 47.1575 274.501 47.1575C264.931 47.1575 261.405 53.7449 256.872 53.7449C252.339 53.7449 246.295 66.4129 242.266 64.8927C238.236 63.3726 232.696 62.3591 226.652 62.3591C220.608 62.3591 217.082 67.4263 213.557 69.4532C210.031 71.4801 204.994 69.96 199.454 69.4532C193.913 68.9465 191.899 65.9062 188.373 62.3591C184.847 58.8121 181.825 53.7449 176.789 53.7449C171.752 53.7449 168.226 58.3054 161.175 57.2919C154.123 56.2785 149.59 53.7449 147.072 47.1575C144.554 40.5702 140.021 43.1038 135.991 40.0635C131.962 37.0231 132.465 29.929 127.932 27.3954C123.399 24.8618 125.414 26.382 116.852 14.2207C108.289 2.05942 110.808 9.15351 101.742 4.0863C92.6755 -0.980902 92.1718 -0.474181 82.0984 1.04598C72.025 2.56614 75.047 15.7409 70.0103 20.3014C64.9736 24.8618 65.9809 36.0097 63.4626 40.0635C60.9442 44.1172 52.3818 36.5164 45.3304 40.0635C38.279 43.6105 42.3084 51.2113 35.257 53.7449C28.2056 56.2785 31.2276 60.839 25.1836 60.839C19.1395 60.839 21.1542 57.2919 14.1028 62.3591Z" fill="url(#paint0_linear_0_1351)"/>
</g>
<line y1="72.5" x2="343" y2="72.5" stroke="#CAC2ED" stroke-width="3"/>
<line x1="47" y1="72.5" x2="171" y2="72.5" stroke="#7258F0" stroke-width="3"/>
<circle cx="47" cy="74" r="11" fill="#FDFDFD" stroke="url(#paint1_linear_0_1351)" stroke-width="2"/>
<circle cx="171" cy="74" r="11" fill="#FDFDFD" stroke="url(#paint2_linear_0_1351)" stroke-width="2"/>
<defs>
<linearGradient id="paint0_linear_0_1351" x1="-2.62088e-06" y1="3.72414" x2="26.5097" y2="132.352" gradientUnits="userSpaceOnUse">
<stop stop-color="#917AFD"/>
<stop offset="1" stop-color="#6246EA"/>
</linearGradient>
<linearGradient id="paint1_linear_0_1351" x1="35" y1="63.2414" x2="57.3448" y2="86" gradientUnits="userSpaceOnUse">
<stop stop-color="#917AFD"/>
<stop offset="1" stop-color="#6246EA"/>
</linearGradient>
<linearGradient id="paint2_linear_0_1351" x1="159" y1="63.2414" x2="181.345" y2="86" gradientUnits="userSpaceOnUse">
<stop stop-color="#917AFD"/>
<stop offset="1" stop-color="#6246EA"/>
</linearGradient>
<clipPath id="clip0_0_1351">
<rect width="124" height="72" fill="white" transform="translate(47)"/>
</clipPath>
</defs>
</svg>
